<svg width="16" height="16" viewBox="0 0 16 16" fill="none" xmlns="http://www.w3.org/2000/svg" style="image-rendering: pixelated">
<path d="M10 8V10H12V8H10Z" fill="black"/>
<path d="M4 8H3V10H4V8Z" fill="black"/>
<path d="M6 10V11H4V10H6Z" fill="black"/>
<path fill-rule="evenodd" clip-rule="evenodd" d="M7 0H9V1H11V2H12V3H13V4H14V5H15V6H16V9H14V10H13V11H14V14H13V16H12V14H13V11H12V12H11V16H10V11H6V16H5V12H4V11H3V14H4V16H3V14H2V11H3V10H2V9H0V6H1V5H2V4H3V3H4V2H5V1H7V0ZM7 1V2H5V3H4V4H3V5H2V6H1V8H2V7H4V6H12V7H14V8H15V6H14V5H13V4H12V3H11V2H9V1H7ZM10 8V7H12V8H13V10H12V11H10V10H9V8H10ZM6 8V7H4V8H6ZM6 10H7V8H6V10Z" fill="black"/>
<path d="M9 12H7V16H9V12Z" fill="black"/>
<path d="M9 1H7V2H5V3H4V4H3V5H2V6H1V8H2V7H4V6H12V7H14V8H15V6H14V5H13V4H12V3H11V2H9V1Z" fill="white"/>
<path fill-rule="evenodd" clip-rule="evenodd" d="M10 8V7H12V8H13V10H12V11H13V14H12V16H11V12H12V11H10V16H9V12H7V16H6V11H4V12H5V16H4V14H3V11H4V10H3V8H4V7H6V8H7V10H6V11H10V10H9V8H10ZM10 8V10H12V8H10ZM6 10V8H4V10H6Z" fill="white"/>
</svg>
