<svg width="44" height="16" viewBox="0 0 44 16" fill="none" xmlns="http://www.w3.org/2000/svg" style="image-rendering: pixelated">
<path d="M6 8V10H4V8H6Z" fill="black"/>
<path d="M12 8H13V10H12V8Z" fill="black"/>
<path d="M10 10V11H12V10H10Z" fill="black"/>
<path fill-rule="evenodd" clip-rule="evenodd" d="M9 0H7V1H5V2H4V3H3V4H2V5H1V6H0V9H2V10H3V11H2V14H3V16H4V14H3V11H4V12H5V16H6V11H10V16H11V12H12V11H13V14H12V16H13V14H14V11H13V10H14V9H16V6H15V5H14V4H13V3H12V2H11V1H9V0ZM9 1V2H11V3H12V4H13V5H14V6H15V8H14V7H12V6H4V7H2V8H1V6H2V5H3V4H4V3H5V2H7V1H9ZM6 8V7H4V8H3V10H4V11H6V10H7V8H6ZM10 8V7H12V8H10ZM10 10H9V8H10V10Z" fill="black"/>
<path d="M7 12H9V16H7V12Z" fill="black"/>
<path d="M7 1H9V2H11V3H12V4H13V5H14V6H15V8H14V7H12V6H4V7H2V8H1V6H2V5H3V4H4V3H5V2H7V1Z" fill="white"/>
<path fill-rule="evenodd" clip-rule="evenodd" d="M6 8V7H4V8H3V10H4V11H3V14H4V16H5V12H4V11H6V16H7V12H9V16H10V11H12V12H11V16H12V14H13V11H12V10H13V8H12V7H10V8H9V10H10V11H6V10H7V8H6ZM6 8V10H4V8H6ZM10 10V8H12V10H10Z" fill="white"/>
<path d="M25 7H27V8H25V7Z" fill="black"/>
<path d="M24 9V8H25V9H24Z" fill="black"/>
<path d="M23 10V9H24V10H23Z" fill="black"/>
<path fill-rule="evenodd" clip-rule="evenodd" d="M24 12H23V10H22V13H23V14H22V15H23V16H24V15H25V16H27V15H28V16H30V14H29V13H30V10H29V9H28V8H27V9H28V10H29V12H28V11H24V12ZM28 12H27V13H28V12ZM29 14V15H28V14H29ZM27 15V14H25V15H27ZM24 15H23V14H24V15Z" fill="black"/>
<path d="M24 12V13H25V12H24Z" fill="black"/>
<path d="M27 8H25V9H24V10H23V12H24V13H25V12H24V11H28V12H27V13H28V12H29V10H28V9H27V8Z" fill="white"/>
<path d="M24 14H23V15H24V16H25V15H27V16H28V15H29V14H28V15H27V14H25V15H24V14Z" fill="white"/>
<path d="M39 6H41V7H39V6Z" fill="black"/>
<path d="M38 8V7H39V8H38Z" fill="black"/>
<path d="M37 9V8H38V9H37Z" fill="black"/>
<path d="M37 11H36V9H37V11Z" fill="black"/>
<path d="M43 11H42V10H38V11H37V12H36V14H37V12H38V15H39V12H41V15H42V12H43V14H44V12H43V11Z" fill="black"/>
<path d="M43 9H44V11H43V9Z" fill="black"/>
<path fill-rule="evenodd" clip-rule="evenodd" d="M42 8V7H41V8H42ZM42 8H43V9H42V8Z" fill="black"/>
<path d="M39 7H41V8H42V9H43V11H42V10H38V11H37V9H38V8H39V7Z" fill="white"/>
<path d="M43 12H42V15H43V12Z" fill="white"/>
<path d="M39 12H41V16H39V12Z" fill="white"/>
<path d="M38 12H37V15H38V12Z" fill="white"/>
</svg>
