<svg width="115" height="55" viewBox="0 0 115 55" fill="none" xmlns="http://www.w3.org/2000/svg" style="image-rendering: pixelated">
<path d="M26.1386 2.37622H47.5247V4.75246H52.2772V11.8812H59.4059V7.1287H64.1584V2.37622H87.9208V4.75246H90.297V11.8812H95.0495V19.0099H106.931V21.3861H111.683V38.0198H106.931V45.1485H102.178V49.901H87.9208V47.5247H78.4158V49.901H73.6634V52.2772H64.1584V49.901H59.4059V47.5247H57.0297V49.901H47.5247V47.5247H40.396V52.2772H26.1386V49.901H21.3861V47.5247H19.0099V45.1485H7.1287V40.396H2.37622V26.1386H7.1287V21.3861H19.0099V11.8812H21.3861V7.1287H26.1386V2.37622Z" fill="white"/>
<path d="M80.7921 9.50495H78.4158V16.6337H80.7921V9.50495Z" fill="black"/>
<path d="M71.2871 9.50495H73.6634V16.6337H71.2871V9.50495Z" fill="black"/>
<path d="M42.7723 9.50495H40.396V16.6337H42.7723V9.50495Z" fill="black"/>
<path d="M33.2673 9.50495H35.6436V16.6337H33.2673V9.50495Z" fill="black"/>
<path fill-rule="evenodd" clip-rule="evenodd" d="M45.1485 0H30.8911V2.37624H26.1386V4.75248H23.7624V7.12871H21.3861V11.8812H19.0099V16.6337H16.6337V19.0099H11.8812V21.3861H7.12871V23.7624H4.75248V26.1386H2.37624V30.8911H0V35.6436H2.37624V40.396H4.75248V42.7723H7.12871V45.1485H11.8812V47.5248H19.0099V49.901H21.3861V52.2772H26.1386V54.6535H35.6436V52.2772H40.396V49.901H42.7723V47.5248H45.1485V49.901H49.901V52.2772H57.0297V49.901H59.4059V52.2772H64.1584V54.6535H73.6634V52.2772H78.4158V49.901H80.7921V47.5248H83.1683V49.901H87.9208V52.2772H97.4258V49.901H102.178V47.5248H104.554V45.1485H106.931V40.396H109.307V38.0198H111.683V33.2673H114.059V26.1386H111.683V21.3861H109.307V19.0099H104.554V16.6337H95.0495V11.8812H92.6733V7.12871H90.297V4.75248H87.9208V2.37624H83.1683V0H68.9109V2.37624H64.1584V4.75248H61.7822V7.12871H59.4059V11.8812H54.6535V7.12871H52.2772V4.75248H49.901V2.37624H45.1485V0ZM45.1485 2.37624V4.75248H49.901V7.12871H52.2772V11.8812H54.6535V16.6337H59.4059V11.8812H61.7822V7.12871H64.1584V4.75248H68.9109V2.37624H83.1683V4.75248H87.9208V7.12871H90.297V11.8812H92.6733V16.6337H95.0495V19.0099H104.554V21.3861H109.307V26.1386H111.683V33.2673H109.307V38.0198H104.554V45.1485H102.178V47.5248H97.4258V49.901H87.9208V47.5248H83.1683V45.1485H78.4158V49.901H73.6634V52.2772H64.1584V49.901H59.4059V47.5248H57.0297V49.901H49.901V47.5248H45.1485V45.1485H40.396V49.901H35.6436V52.2772H26.1386V49.901H21.3861V47.5248H19.0099V45.1485H11.8812V42.7723H7.12871V40.396H4.75248V35.6436H2.37624V30.8911H4.75248V26.1386H7.12871V23.7624H11.8812V21.3861H19.0099V16.6337H21.3861V11.8812H23.7624V7.12871H26.1386V4.75248H30.8911V2.37624H45.1485Z" fill="black"/>
<path fill-rule="evenodd" clip-rule="evenodd" d="M47.5248 9.505H49.901V11.8812H47.5248V9.505ZM49.901 11.8812H52.2772V16.6337H49.901V11.8812Z" fill="#93FCEE"/>
<path d="M9.50496 38.0199H7.12872V40.3961H9.50496V38.0199Z" fill="#93FCEE"/>
<path d="M11.8812 40.3961H16.6337V38.0199H19.0099V35.6436H21.3862V40.3961H19.0099V42.7723H11.8812V40.3961Z" fill="#93FCEE"/>
<path d="M26.1386 45.1486H23.7624V47.5248H26.1386V49.901H35.6436V47.5248H38.0198V45.1486H40.3961V38.0199H35.6436V45.1486H33.2673V47.5248H26.1386V45.1486Z" fill="#93FCEE"/>
<path d="M49.901 42.7723H47.5248V45.1486H49.901V42.7723Z" fill="#93FCEE"/>
<path d="M52.2772 45.1486H57.0297V47.5248H52.2772V45.1486Z" fill="#93FCEE"/>
<path d="M59.406 35.6436H57.0297V40.3961H59.406V35.6436Z" fill="#93FCEE"/>
<path fill-rule="evenodd" clip-rule="evenodd" d="M61.7822 45.1486H64.1584V47.5248H61.7822V45.1486ZM64.1584 47.5248H71.2871V45.1486H73.6634V38.0199H78.4159V45.1486H76.0396V47.5248H73.6634V49.901H64.1584V47.5248Z" fill="#93FCEE"/>
<path d="M85.5446 42.7723H87.9208V45.1486H85.5446V42.7723Z" fill="#93FCEE"/>
<path d="M95.0495 45.1486H90.2971V47.5248H95.0495V45.1486Z" fill="#93FCEE"/>
<path fill-rule="evenodd" clip-rule="evenodd" d="M104.554 26.1387H102.178V23.7624H104.554V26.1387ZM104.554 26.1387V30.8911H102.178V33.2674H95.0495V35.6436H97.4258V42.7723H95.0495V45.1486H99.802V42.7723H102.178V35.6436H104.554V33.2674H106.931V26.1387H104.554Z" fill="#93FCEE"/>
<path fill-rule="evenodd" clip-rule="evenodd" d="M87.9208 9.505H85.5446V11.8812H87.9208V9.505ZM87.9208 11.8812H90.2971V16.6337H87.9208V11.8812Z" fill="#93FCEE"/>
</svg>
