<svg width="77" height="55" viewBox="0 0 77 55" fill="none" xmlns="http://www.w3.org/2000/svg" style="image-rendering: pixelated">
<path d="M26.1386 2.37622H49.901V4.75246H52.2772V11.8812H57.0297V19.0099H68.9109V21.3861H73.6634V38.0198H68.9109V45.1485H64.1584V49.901H49.901V47.5247H40.396V49.901H35.6436V52.2772H26.1386V49.901H21.3861V47.5247H16.6336V45.1485H7.1287V40.396H2.37622V26.1386H7.1287V21.3861H16.6336V16.6336H21.3861V7.1287H26.1386V2.37622Z" fill="white"/>
<path d="M42.7723 9.50495H40.396V16.6337H42.7723V9.50495Z" fill="black"/>
<path d="M33.2673 9.50495H35.6436V16.6337H33.2673V9.50495Z" fill="black"/>
<path fill-rule="evenodd" clip-rule="evenodd" d="M45.1485 0H30.8911V2.37624H26.1386V4.75248H23.7624V7.12871H21.3861V11.8812H19.0099V16.6337H16.6337V19.0099H11.8812V21.3861H7.12871V23.7624H4.75248V26.1386H2.37624V30.8911H0V35.6436H2.37624V40.396H4.75248V42.7723H7.12871V45.1485H11.8812V47.5248H19.0099V49.901H21.3861V52.2772H26.1386V54.6535H35.6436V52.2772H40.396V49.901H42.7723V47.5248H45.1485V49.901H49.901V52.2772H59.4059V49.901H64.1584V47.5248H66.5347V45.1485H68.9109V40.396H71.2871V38.0198H73.6634V33.2673H76.0396V26.1386H73.6634V21.3861H71.2871V19.0099H66.5347V16.6337H57.0297V11.8812H54.6535V7.12871H52.2772V4.75248H49.901V2.37624H45.1485V0ZM45.1485 2.37624V4.75248H49.901V7.12871H52.2772V11.8812H54.6535V16.6337H57.0297V19.0099H66.5347V21.3861H71.2871V26.1386H73.6634V33.2673H71.2871V38.0198H66.5347V45.1485H64.1584V47.5248H59.4059V49.901H49.901V47.5248H45.1485V45.1485H40.396V49.901H35.6436V52.2772H26.1386V49.901H21.3861V47.5248H19.0099V45.1485H11.8812V42.7723H7.12871V40.396H4.75248V35.6436H2.37624V30.8911H4.75248V26.1386H7.12871V23.7624H11.8812V21.3861H19.0099V16.6337H21.3861V11.8812H23.7624V7.12871H26.1386V4.75248H30.8911V2.37624H45.1485Z" fill="black"/>
<path d="M49.901 9.505H47.5248V11.8812H49.901V16.6337H52.2772V11.8812H49.901V9.505Z" fill="#93FCEE"/>
<path d="M66.5347 23.7624H64.1584V26.1387H66.5347V30.8911H64.1584V33.2674H57.0297V35.6436H59.406V42.7723H57.0297V45.1486H52.2772V47.5248H57.0297V45.1486H61.7822V42.7723H64.1584V35.6436H66.5347V33.2674H68.9109V26.1387H66.5347V23.7624Z" fill="#93FCEE"/>
<path d="M21.3862 35.6436H19.0099V38.0199H16.6337V40.3961H11.8812V42.7723H19.0099V40.3961H21.3862V35.6436Z" fill="#93FCEE"/>
<path d="M9.50496 38.0199H7.12872V40.3961H9.50496V38.0199Z" fill="#93FCEE"/>
<path fill-rule="evenodd" clip-rule="evenodd" d="M23.7624 45.1486H26.1386V47.5248H23.7624V45.1486ZM26.1386 47.5248H33.2673V45.1486H35.6436V38.0199H40.3961V45.1486H38.0198V47.5248H35.6436V49.901H26.1386V47.5248Z" fill="#93FCEE"/>
<path d="M47.5248 42.7723H49.901V45.1486H47.5248V42.7723Z" fill="#93FCEE"/>
</svg>
