<svg width="47" height="54" viewBox="0 0 47 54" fill="none" xmlns="http://www.w3.org/2000/svg"  style="image-rendering: pixelated">
<path d="M33.3333 0H13.3333V3.33333H6.66667V6.66667H3.33333V13.3333H0V40H3.33333V46.6667H6.66667V50H13.3333V53.3333H33.3333V50H40V46.6667H43.3333V40H46.6667V13.3333H43.3333V6.66667H40V3.33333H33.3333V0Z" fill="black"/>
<path d="M26.6666 3.33337H16.6666V6.66671H9.99998V10H6.66665V16.6667H3.33331V36.6667H6.66665V43.3334H9.99998V46.6667H16.6666V50H26.6666V46.6667H33.3333V43.3334H36.6666V36.6667H40V16.6667H36.6666V10H33.3333V6.66671H26.6666V3.33337Z" fill="#FCB5A8"/>
<path d="M16.6667 6.66663H33.3333V9.99996H36.6667V16.6666H40V36.6666H36.6667V46.6666H33.3333V50H16.6667V46.6666H13.3334V43.3333H10V36.6666H6.66669V16.6666H10V9.99996H16.6667V6.66663Z" fill="#FC8E2E"/>
<path d="M30 10H26.6667V40H16.6667V43.3333H30V10Z" fill="black"/>
<path d="M33.3333 46.6667V50H26.6667V46.6667H33.3333Z" fill="black"/>
<path d="M33.3333 46.6667V43.3333H40V46.6667H33.3333Z" fill="black"/>
<path d="M16.6667 10V40H20V13.3333H26.6667V10H16.6667Z" fill="#FCB5A8"/>
</svg>
