<svg width="55" height="55" viewBox="0 0 55 55" fill="none" xmlns="http://www.w3.org/2000/svg" style="image-rendering: pixelated"
>
<path d="M34.375 3.4375H20.625V13.75H13.75V17.1875H3.43747V34.375H13.75V48.125H20.625V51.5625H34.375V48.125H41.25V34.375H51.5625V17.1875H41.25V13.75H34.375V3.4375Z" fill="#FFAE4C"/>
<path d="M48.125 48.125H51.5625V51.5625H48.125V48.125Z" fill="#FFAE4C"/>
<path d="M6.87498 44.6875H3.43747V48.125H6.87498V44.6875Z" fill="#FFAE4C"/>
<path d="M34.375 0H20.625V3.4375H34.375V0Z" fill="black"/>
<path d="M30.9375 17.1875V24.0625H34.375V17.1875H30.9375Z" fill="black"/>
<path d="M41.25 27.5H13.75V30.9375H41.25V27.5Z" fill="black"/>
<path fill-rule="evenodd" clip-rule="evenodd" d="M30.9375 13.75V6.875H34.375V3.4375H41.25V6.875H44.6875V10.3125H41.25V13.75H44.6875V17.1875H51.5625V20.625H55V30.9375H51.5625V34.375H48.125V37.8125H44.6875V44.6875H51.5625V48.125H55V55H34.375V48.125H37.8125V44.6875H41.25V41.25H37.8125V37.8125H20.625V41.25H17.1875V44.6875H20.625V51.5625H-3.05176e-05V44.6875H3.43747V41.25H17.1875V37.8125H6.87497V34.375H3.43747V30.9375H-3.05176e-05V20.625H3.43747V17.1875H10.3125V13.75H13.75V10.3125H10.3125V6.875H13.75V3.4375H20.625V6.875H24.0625V13.75H30.9375ZM30.9375 17.1875V13.75H34.375V10.3125H37.8125V13.75H41.25V17.1875H44.6875V20.625H51.5625V30.9375H48.125V34.375H6.87497V30.9375H3.43747V20.625H10.3125V17.1875H13.75V13.75H17.1875V10.3125H20.625V13.75H24.0625V17.1875H30.9375ZM24.0625 17.1875H20.625V24.0625H24.0625V17.1875ZM3.43747 44.6875V48.125H6.87497V44.6875H3.43747Z" fill="black"/>
<path d="M51.5625 48.125H48.125V51.5625H51.5625V48.125Z" fill="black"/>
<path d="M37.8125 10.3125H34.375V13.75H30.9375V17.1875H34.375V24.0625H37.8125V10.3125Z" fill="#FFBAAA"/>
<path d="M20.625 10.3125H17.1875V24.0625H20.625V17.1875H24.0625V13.75H20.625V10.3125Z" fill="#FFBAAA"/>
<path d="M10.3125 27.5H13.75V34.375H10.3125V27.5Z" fill="#FFBAAA"/>
<path d="M44.6875 27.5H41.25V34.375H44.6875V27.5Z" fill="#FFBAAA"/>
<path d="M37.8125 37.8125V44.6875H34.375V48.125H20.625V44.6875H17.1875V41.25H20.625V37.8125H37.8125Z" fill="#FFBAAA"/>
</svg>
