<svg width="18" height="29" viewBox="0 0 18 29" fill="none" xmlns="http://www.w3.org/2000/svg" style="image-rendering: pixelated">
<path fill-rule="evenodd" clip-rule="evenodd" d="M18 1H3V2H1V16H0V27H1H18V2V1Z" fill="#41D83D"/>
<path fill-rule="evenodd" clip-rule="evenodd" d="M9 0H18V1H17V2H16V1H14V2H13V1H10V2H8V1H4V2H2V3H1V10H2V14H1V16H0V14H1V11H0V3V2H1V1H3V0H8V1H9V0ZM15 3H14V4H15V3ZM12 5H13V6H12V5ZM9 3H8V4H9V3ZM5 3H6V4H5V3ZM4 6H3V7H4V6ZM5 11H6V12H5V11ZM5 14H4V15H5V14ZM10 14H11V15H10V14ZM15 11H14V12H15V11ZM11 9H12V10H11V9Z" fill="black"/>
<path fill-rule="evenodd" clip-rule="evenodd" d="M12 16H10V17H9V18H10V19H9V18H6V17H4V18H5V19H4V18H2V17H1V16H0V17V18H1V19H0V20V21V22V29H18V22V21H17V20H18V19V18V17H17V16H16V17H15V16H14V17H12V18H11V17H12V16ZM16 20V21H15V20H16ZM2 17H3V16H2V17ZM9 17V16H8V17H9ZM17 18V19H16V18H17ZM14 19H15V18H14V19ZM1 21V20H2V21H1ZM4 20H3V21H4V20ZM12 22H11V21H12V22ZM7 19V20H8V19H7ZM12 19V20H13V19H12Z" fill="#009F00"/>
</svg>
