<svg width="122" height="131" viewBox="0 0 122 131" fill="none" xmlns="http://www.w3.org/2000/svg" style="image-rendering: pixelated">
<path fill-rule="evenodd" clip-rule="evenodd" d="M121.188 5.05933H111.683V9.8118H99.802V14.5643H87.9208V19.3168H83.1683V24.0692H71.2871V28.8217H61.7822V33.5742H52.2772V38.3267H45.1485V43.0791H33.2673V47.8316H23.7624V52.5841H14.2574V57.3366H7.12871V62.089H0V131H121.188V62.089L121.188 57.3366V52.5841V47.8316L121.188 43.0791L121.188 38.3267V33.5742L121.188 28.8217V24.0692L121.188 19.3168V14.5643L121.188 9.8118V5.05933Z" fill="#41D83D"/>
<path fill-rule="evenodd" clip-rule="evenodd" d="M49.901 100.109H54.6535V102.485H57.0297V104.861H54.6535V107.238H57.0297V104.861H64.1584V102.485H68.9109V104.861H66.5347V107.238H68.9109L68.9109 104.861H73.6634V102.485H76.0396V100.109H78.4158V102.485H80.7921V100.109H83.1683V102.485H87.9208V104.861H90.297V102.485H87.9208L87.9208 100.109H92.6733V102.485H95.0495V104.861H92.6733V107.238H95.0495V104.861H102.178V102.485H106.931V104.861H104.554V107.238H106.931L106.931 104.861H111.683V102.485H114.059V100.109H116.436V102.485H118.812V100.109H121.188L121.188 102.485V104.861H118.812V107.238H121.188V109.614L121.188 111.99V114.366V131H0V114.366V111.99V109.614V107.238H2.37624V104.861H0V102.485V102.485V100.109H2.37624V102.485H4.75248V100.109H7.12871V102.485H11.8812V104.861H14.2574V102.485H11.8812V100.109H16.6337V102.485H19.0099V104.861H16.6337V107.238H19.0099V104.861H26.1386V102.485H30.8911V104.861H28.5149V107.238H30.8911V104.861H35.6436V102.485H38.0198V100.109H40.396V102.485H42.7723V100.109H45.1485V102.485H49.901L49.901 104.861H52.2772V102.485H49.901V100.109ZM35.6436 102.485H33.2673V100.109H35.6436V102.485ZM19.0099 102.485V100.109H21.3861V102.485H19.0099ZM11.8812 114.366H14.2574V111.99H11.8812V114.366ZM49.901 114.366H52.2772V111.99H49.901V114.366ZM87.9208 114.366H90.297V111.99H87.9208V114.366ZM111.683 102.485H109.307V100.109H111.683V102.485ZM95.0495 102.485V100.109H97.4258V102.485H95.0495ZM73.6634 102.485H71.2871V100.109H73.6634V102.485ZM57.0297 102.485V100.109H59.4059V102.485H57.0297ZM4.75248 104.861V107.238H7.12871V104.861H4.75248ZM118.812 111.99V109.614H116.436V111.99H118.812ZM106.931 109.614H109.307V111.99H106.931V109.614ZM111.683 111.99V109.614H114.059V111.99H111.683ZM116.436 107.238V104.861H114.059V107.238H116.436ZM80.7921 111.99V109.614H78.4158V111.99H80.7921ZM76.0396 111.99V109.614H73.6634V111.99H76.0396ZM71.2871 111.99V109.614H68.9109V111.99H71.2871ZM85.5446 109.614H87.9208V107.238H85.5446V109.614ZM97.4258 109.614H99.802V107.238H97.4258V109.614ZM42.7723 111.99V109.614H40.396V111.99H42.7723ZM38.0198 111.99V109.614H35.6436V111.99H38.0198ZM33.2673 111.99V109.614H30.8911V111.99H33.2673ZM47.5248 109.614H49.901V107.238H47.5248V109.614ZM59.4059 109.614H61.7822V107.238H59.4059V109.614ZM2.37624 111.99H4.75248V109.614H2.37624V111.99ZM9.50495 109.614H11.8812V107.238H9.50495V109.614ZM21.3861 109.614H23.7624V107.238H21.3861V109.614ZM45.1485 107.238H42.7723V104.861H45.1485V107.238ZM40.396 104.861V107.238H38.0198V104.861H40.396ZM76.0396 107.238H78.4158V104.861H76.0396V107.238ZM83.1683 107.238H80.7921V104.861H83.1683V107.238Z" fill="#009F00"/>
<path fill-rule="evenodd" clip-rule="evenodd" d="M121.188 0.306885H118.812V2.68312H116.436V5.05936H109.307V7.4356H102.178V9.81184H97.4258V12.1881H90.297V14.5643H87.9208V16.9405H85.5446V19.3168H80.7921V21.693H78.4158V24.0693H71.2871V26.4455H64.1584V28.8217H59.4059V31.198H52.2772V33.5742H49.901V35.9505H47.5248V38.3267H42.7723V40.7029H40.396V43.0792L33.2673 43.0792V45.4554H26.1386V47.8316H21.3861V50.2079H14.2574V52.5841L11.8812 52.5841V54.9604H9.50495V57.3366H4.75248V59.7128H2.37624V62.0891L0 62.0891V66.8415H2.37624V62.0891H7.12871V59.7128H11.8812V57.3366H14.2574V54.9604H16.6337V52.5841L23.7624 52.5841V50.2079H28.5149V47.8316H35.6436V45.4554H40.396V43.0792H45.1485V40.7029H49.901V38.3267H52.2772V35.9505H54.6535V33.5742H61.7822V31.198H66.5347V28.8217H73.6634V26.4455H78.4159L78.4158 24.0693H83.1683V21.693H87.9208V19.3168H90.297V16.9405H92.6733V14.5643H99.802V12.1881H104.554V9.81184H111.683V7.4356H116.436L116.436 5.05936H121.188V2.68312V0.306885ZM4.75248 69.2178H7.12871V71.594H4.75248V69.2178ZM7.12871 88.2277H4.75248V90.6039H7.12871V88.2277ZM11.8812 83.4752H14.2574V85.8514H11.8812V83.4752ZM16.6337 76.3465H14.2574V78.7227H16.6337V76.3465ZM11.8812 64.4653H14.2574V66.8415H11.8812V64.4653ZM19.0099 57.3366H16.6337V59.7128H19.0099V57.3366ZM26.1386 54.9604H28.5149V57.3366H26.1386V54.9604ZM35.6436 52.5841H33.2673V54.9604H35.6436V52.5841ZM30.8911 64.4653H33.2673V66.8415H30.8911V64.4653ZM26.1386 69.2178H23.7624V71.594H26.1386V69.2178ZM33.2673 76.3465H35.6436V78.7227H33.2673V76.3465ZM33.2673 83.4752H30.8911V85.8514H33.2673V83.4752ZM23.7624 88.2277H26.1386V90.6039H23.7624V88.2277ZM16.6337 95.3564H14.2574V97.7326H16.6337V95.3564ZM33.2673 95.3564H35.6436V97.7326H33.2673V95.3564ZM45.1485 88.2277H42.7723V90.6039H45.1485V88.2277ZM49.901 83.4752H52.2772V85.8514H49.901V83.4752ZM54.6535 76.3465H52.2772V78.7227H54.6535V76.3465ZM42.7723 69.2178H45.1485V71.594H42.7723V69.2178ZM52.2772 64.4653H49.901V66.8415H52.2772V64.4653ZM42.7723 50.2079H45.1485V52.5841H42.7723V50.2079ZM54.6535 57.3366H52.2772V59.7128H54.6535V57.3366ZM49.901 45.4554H52.2772V47.8316H49.901V45.4554ZM57.0297 38.3267H54.6535V40.7029H57.0297V38.3267ZM64.1584 35.9505H66.5347V38.3267H64.1584V35.9505ZM73.6634 33.5742H71.2871V35.9505H73.6634V33.5742ZM80.7921 31.198H83.1683V33.5742H80.7921V31.198ZM87.9208 28.8217H90.297V26.4455H87.9208V28.8217ZM95.0495 21.693H92.6733V19.3168H95.0495V21.693ZM102.178 19.3168H104.554V16.9405H102.178V19.3168ZM111.683 16.9405H109.307V14.5643H111.683V16.9405ZM118.812 14.5643H121.188V12.1881H118.812V14.5643ZM121.188 33.5742H118.812V31.198H121.188V33.5742ZM118.812 52.5841H121.188V50.2079H118.812V52.5841ZM121.188 71.594H118.812V69.2178H121.188V71.594ZM118.812 90.6039H121.188V88.2277H118.812V90.6039ZM109.307 85.8514H106.931V83.4752H109.307V85.8514ZM109.307 78.7227H111.683V76.3465H109.307V78.7227ZM102.178 71.594H99.802V69.2178H102.178V71.594ZM106.931 66.8415H109.307V64.4653H106.931V66.8415ZM111.683 59.7128H109.307V57.3366H111.683V59.7128ZM99.802 52.5841H102.178V50.2079H99.802V52.5841ZM109.307 47.8316H106.931V45.4554H109.307V47.8316ZM109.307 40.7029H111.683V38.3267H109.307V40.7029ZM109.307 28.8217H106.931V26.4455H109.307V28.8217ZM99.802 33.5742H102.178V31.198H99.802V33.5742ZM92.6733 40.7029H90.297V38.3267H92.6733V40.7029ZM87.9208 47.8316H90.297V45.4554H87.9208V47.8316ZM92.6733 59.7128H90.297V57.3366H92.6733V59.7128ZM87.9208 66.8415H90.297V64.4653H87.9208V66.8415ZM92.6733 78.7227H90.297V76.3465H92.6733V78.7227ZM99.802 90.6039H102.178V88.2277H99.802V90.6039ZM111.683 97.7326H109.307V95.3564H111.683V97.7326ZM90.297 97.7326H92.6733V95.3564H90.297V97.7326ZM90.297 85.8514H87.9208V83.4752H90.297V85.8514ZM80.7921 90.6039H83.1683V88.2277H80.7921V90.6039ZM71.2871 85.8514H68.9109V83.4752H71.2871V85.8514ZM71.2871 78.7227H73.6634V76.3465H71.2871V78.7227ZM83.1683 71.594H80.7921V69.2178H83.1683V71.594ZM68.9109 66.8415H71.2871V64.4653H68.9109V66.8415ZM73.6634 59.7128H71.2871V57.3366H73.6634V59.7128ZM80.7921 52.5841H83.1683V50.2079H80.7921V52.5841ZM71.2871 47.8316H68.9109V45.4554H71.2871V47.8316ZM61.7822 52.5841H64.1584V50.2079H61.7822V52.5841ZM64.1584 71.594H61.7822V69.2178H64.1584V71.594ZM61.7822 90.6039H64.1584V88.2277H61.7822V90.6039ZM54.6535 97.7326H52.2772V95.3564H54.6535V97.7326ZM71.2871 97.7326H73.6634V95.3564H71.2871V97.7326Z" fill="black"/>
</svg>
