<svg width="159" height="216" viewBox="0 0 159 216" fill="none" xmlns="http://www.w3.org/2000/svg" style="image-rendering: pixelated">
<rect x="15.3763" y="15.3762" width="109.307" height="185.347" fill="#FCB5A8"/>
<path d="M122.307 17.7525H124.683V20.1287H122.307V17.7525Z" fill="#FC8E2E"/>
<path d="M117.555 15.3762H122.307V20.1287H117.555V15.3762Z" fill="#FC8E2E"/>
<rect x="117.555" y="20.1287" width="7.12871" height="178.218" fill="#FC8E2E"/>
<rect x="17.7525" y="198.347" width="104.554" height="2.37624" fill="#FC8E2E"/>
<rect x="15.3763" y="195.97" width="2.37624" height="2.37624" fill="#FC8E2E"/>
<path d="M124.683 36.7623H146.069V198.346H124.683V36.7623Z" fill="black"/>
<path d="M124.683 32.0099H143.693V34.3861H124.683V32.0099Z" fill="black"/>
<path d="M124.683 34.3861H146.069V36.7624H124.683V34.3861Z" fill="black"/>
<path d="M124.683 198.347H146.069V200.723H124.683V198.347Z" fill="black"/>
<path d="M127.059 200.723H146.069V203.099H127.059V200.723Z" fill="black"/>
<rect x="13" y="17.7524" width="2.37624" height="180.594" fill="black"/>
<rect x="124.683" y="17.7524" width="2.37624" height="180.594" fill="black"/>
<rect x="17.7525" y="13" width="104.554" height="2.37624" fill="black"/>
<rect x="17.7525" y="200.723" width="104.554" height="2.37624" fill="black"/>
<path d="M124.683 13V17.7525H122.307V13H124.683Z" fill="black"/>
<path d="M127.059 15.3762V17.7525H122.307V15.3762H127.059Z" fill="black"/>
<path d="M124.683 203.099V198.347H122.307V203.099H124.683Z" fill="black"/>
<path d="M127.059 200.723V198.347H122.307V200.723H127.059Z" fill="black"/>
<path d="M13 15.3762H17.7525V17.7525H13V15.3762Z" fill="black"/>
<path d="M15.3762 13H17.7525V17.7525H15.3762V13Z" fill="black"/>
<path d="M15.3762 203.099V198.347H17.7525V203.099H15.3762Z" fill="black"/>
<path d="M13 200.723V198.347H17.7525V200.723H13Z" fill="black"/>
<path d="M29.6337 17.7524H20.1287V20.1287H17.7525V29.6336H20.1287V32.0099H29.6337V29.6336H32.0099V20.1287H29.6337V17.7524Z" fill="black"/>
<path d="M27.2575 20.1287H22.505V22.5049H20.1288V27.2574H22.505V29.6336H27.2575V27.2574H29.6337V22.5049H27.2575V20.1287Z" fill="#93FCEE"/>
<rect x="22.505" y="24.8812" width="2.37624" height="2.37624" fill="black"/>
<rect x="24.8812" y="22.505" width="2.37624" height="2.37624" fill="black"/>
<path d="M119.931 17.7524H110.426V20.1287H108.05V29.6336H110.426V32.0099H119.931V29.6336H122.307V20.1287H119.931V17.7524Z" fill="black"/>
<path d="M117.554 20.1287H112.802V22.5049H110.426V27.2574H112.802V29.6336H117.554V27.2574H119.931V22.5049H117.554V20.1287Z" fill="#93FCEE"/>
<rect x="112.802" y="24.8812" width="2.37624" height="2.37624" fill="black"/>
<rect x="115.178" y="22.505" width="2.37624" height="2.37624" fill="black"/>
<path d="M119.931 184.089H110.426V186.465H108.05V195.97H110.426V198.347H119.931V195.97H122.307V186.465H119.931V184.089Z" fill="black"/>
<path d="M117.554 186.465H112.802V188.842H110.426V193.594H112.802V195.97H117.554V193.594H119.931V188.842H117.554V186.465Z" fill="#93FCEE"/>
<rect x="112.802" y="191.218" width="2.37624" height="2.37624" fill="black"/>
<rect x="115.178" y="188.842" width="2.37624" height="2.37624" fill="black"/>
<path d="M29.6337 184.089H20.1287V186.465H17.7525V195.97H20.1287V198.347H29.6337V195.97H32.0099V186.465H29.6337V184.089Z" fill="black"/>
<path d="M27.2575 186.465H22.505V188.842H20.1288V193.594H22.505V195.97H27.2575V193.594H29.6337V188.842H27.2575V186.465Z" fill="#93FCEE"/>
<rect x="22.505" y="191.218" width="2.37624" height="2.37624" fill="black"/>
</svg>
