<svg width="55" height="90" viewBox="0 0 55 90" fill="none" xmlns="http://www.w3.org/2000/svg" style="image-rendering: pixelated">
<path d="M6.875 34.375H24.0625V44.6875H27.5V68.75H3.4375V44.6875H6.875V34.375Z" fill="#E64434"/>
<path d="M34.375 13.75H30.9375V17.1875H27.5V30.9375H30.9375V37.8125H34.375V48.125H37.8125V61.875H41.25V55H48.125V51.5625H44.6875V48.125H41.25V44.6875H37.8125V34.375H44.6875V37.8125H48.125V41.25H51.5625V27.5H48.125V30.9375H41.25V27.5H37.8125V20.625H34.375V13.75Z" fill="#FFAE4C"/>
<path d="M37.8125 75.625H34.375V79.0625H27.5V85.9375H41.25V79.0625H37.8125V75.625Z" fill="#FFAE4C"/>
<path d="M6.87501 82.5H17.1875V85.9375H6.87501V82.5Z" fill="#FFAE4C"/>
<path d="M44.6875 0H37.8125V3.4375H44.6875V0Z" fill="black"/>
<path d="M48.125 10.3125V3.4375H44.6875V10.3125H48.125Z" fill="black"/>
<path d="M24.0625 51.5625H27.5V48.125H30.9375V65.3125H27.5V55H24.0625V58.4375H20.625V61.875H17.1875V65.3125H13.75V61.875H10.3125V58.4375H6.875V55H10.3125V58.4375H13.75V61.875H17.1875V58.4375H20.625V55H24.0625V51.5625Z" fill="black"/>
<path d="M20.625 48.125H24.0625V51.5625H20.625V48.125Z" fill="black"/>
<path d="M17.1875 44.6875V48.125H20.625V44.6875H17.1875Z" fill="black"/>
<path fill-rule="evenodd" clip-rule="evenodd" d="M17.1875 41.25H20.625V37.8125H17.1875V41.25ZM17.1875 41.25V44.6875H13.75V48.125H10.3125V51.5625H6.875V48.125H10.3125V44.6875H13.75V41.25H10.3125V37.8125H13.75V41.25H17.1875Z" fill="black"/>
<path fill-rule="evenodd" clip-rule="evenodd" d="M48.125 27.5V24.0625H44.6875V13.75H48.125V10.3125H51.5625V27.5H55V44.6875H48.125V41.25H44.6875V37.8125H41.25V44.6875H44.6875V48.125H51.5625V55H48.125V58.4375H44.6875V61.875H41.25V65.3125H37.8125V75.625H41.25V79.0625H44.6875V82.5H48.125V89.375H27.5V85.9375H24.0625V82.5H20.625V89.375H3.4375V85.9375H0V82.5H3.4375V79.0625H0V72.1875H3.4375V65.3125H0V44.6875H3.4375V37.8125H6.875V34.375H10.3125V30.9375H20.625V34.375H24.0625V37.8125H27.5V30.9375H24.0625V17.1875H27.5V13.75H30.9375V10.3125H34.375V3.4375H37.8125V20.625H34.375V13.75H30.9375V17.1875H27.5V30.9375H30.9375V37.8125H34.375V48.125H37.8125V61.875H41.25V55H48.125V51.5625H44.6875V48.125H41.25V44.6875H37.8125V34.375H44.6875V37.8125H48.125V41.25H51.5625V27.5H48.125ZM48.125 27.5H44.6875V30.9375H48.125V27.5ZM30.9375 48.125H34.375V72.1875H30.9375V75.625H24.0625V79.0625H3.4375V72.1875H27.5V65.3125H24.0625V68.75H20.625V65.3125H17.1875V68.75H13.75V65.3125H10.3125V68.75H6.875V65.3125H3.4375V55H6.875V51.5625H3.4375V44.6875H6.875V37.8125H10.3125V34.375H20.625V37.8125H24.0625V48.125H27.5V37.8125H30.9375V48.125ZM34.375 75.625H37.8125V79.0625H41.25V82.5H44.6875V85.9375H27.5V79.0625H34.375V75.625ZM3.4375 82.5V85.9375H17.1875V82.5H3.4375Z" fill="black"/>
<path d="M44.6875 3.4375H37.8125V27.5H41.25V30.9375H44.6875V27.5H48.125V24.0625H44.6875V13.75H48.125V10.3125H44.6875V3.4375Z" fill="#FFBAAA"/>
<path d="M30.9375 37.8125H27.5V48.125H30.9375V37.8125Z" fill="#FFBAAA"/>
<path d="M30.9375 65.3125V48.125H34.375V72.1875H30.9375V75.625H24.0625V79.0625H3.43751V72.1875H27.5V65.3125H30.9375Z" fill="#FFBAAA"/>
<path d="M41.25 82.5H44.6875V85.9375H41.25V82.5Z" fill="#FFBAAA"/>
<path d="M6.87501 82.5H3.43751V85.9375H6.87501V82.5Z" fill="#FFBAAA"/>
</svg>
