<svg width="97" height="130" viewBox="0 0 97 130" fill="none" xmlns="http://www.w3.org/2000/svg" style="image-rendering: pixelated">
<mask id="mask0_0_2745" style="mask-type:alpha" maskUnits="userSpaceOnUse" x="1" y="1" width="95" height="128">
<path d="M44.5 1.5V2.5H41.5V3.5H39.5V4.5H38.5V5.5H37.5V7.5H36.5V9.5H35.5V12.5H34.5V16.5H33.5V49.5H25.5V51.5H23.5V52.5H22.5V53.5H21.5V55.5H20.5V57.5H19.5V60.5H18.5V65.5H12.5V66.5H9.5V67.5H7.5V68.5H6.5V69.5H5.5V71.5H4.5V73.5H3.5V76.5H2.5V80.5H1.5V128.5H95.5V112.5H94.5V108.5H93.5V105.5H92.5V103.5H91.5V101.5H90.5V100.5H89.5V99.5H87.5V98.5H84.5V97.5H79.5V32.5H78.5V28.5H77.5V25.5H76.5V23.5H75.5V21.5H74.5V20.5H73.5V19.5H71.5V18.5H68.5V17.5H62.5V12.5H61.5V9.5H60.5V7.5H59.5V5.5H58.5V4.5H57.5V3.5H55.5V2.5H52.5V1.5H44.5Z" fill="#C4C4C4"/>
</mask>
<g mask="url(#mask0_0_2745)">
<rect x="1.5" y="0.5" width="95" height="128" fill="#009F00"/>
</g>
<path d="M1 80.5V128L96 128.5V112.5M2 80.5V76.5M3 76.5V73.5M4 73.5V71.5M5 71.5V69.5M6 69.5V68M7 68.5V67.5M7.5 67H9.5M9.5 66H12.5M12.5 65H18M20.5 65H18M18 65V60.5M19 60.5V57.5M20 57.5V55.5M21 55.5V53.5M22 53.5V52.5M23 52.5V51.5M23.5 51H25.5M25.5 50H28.5M28.5 49H33M36.5 49H33M33 49V16.5M34 16.5V12.5M35 12.5V9.5M36 9.5V7.5M37 7.5V5.5M38 5.5V4.5M39 4.5V3.5M39.5 3H41.5M41.5 2H44.5M44.5 1H52.5M52.5 2H55.5M55.5 3H57.5M57.5 4H58.5M58.5 5H59.5M60 5.5V7.5M61 7.5V9.5M62 9.5V12.5M63 12.5V17H60.5H68.5M68.5 18H71.5M71.5 19H73.5M74 19.5V20.5M75 20.5V21.5M76 21.5V23.5M77 23.5V25.5M78 25.5V28.5M79 28.5V32.5M80 32.5V97H76.5H84.5M84.5 98H87.5M87.5 99H89.5M90 99.5V100.5M91 100.5V101.5M92 101.5V103.5M93 103.5V105.5M94 105.5V108.5M95 108.5V112.5M76.5 98H73.5M73.5 99H71.5M71.5 100H70.5M70.5 101H69.5M69 101.5V103.5M68 103.5V105.5M67 105.5V108.5M66 108.5V112.5M20.5 66H23.5M23.5 67H25.5M26 67.5V68.5M27 68.5V69.5M28 69.5V71.5M29 71.5V73.5M30 73.5V76.5M31 76.5V80.5M36.5 50H39.5M39.5 51H41.5M41.5 52H42.5M42.5 53H43.5M44 53.5V55.5M45 55.5V57.5M46 57.5V60.5M47 60.5V64.5M60.5 18H57.5M57.5 19H55.5M55 19.5V20.5M54 20.5V21.5M53 21.5V23.5M52 23.5V25.5M51 25.5V28.5M50 28.5V32.5" stroke="black"/>
<rect x="44" y="5" width="2" height="2" fill="black"/>
<rect x="51" y="5" width="2" height="2" fill="black"/>
<rect x="60" y="22" width="2" height="2" fill="black"/>
<rect x="67" y="22" width="2" height="2" fill="black"/>
<rect x="76" y="102" width="2" height="2" fill="black"/>
<rect x="83" y="102" width="2" height="2" fill="black"/>
<rect x="28" y="53" width="2" height="2" fill="black"/>
<rect x="35" y="53" width="2" height="2" fill="black"/>
<rect x="12" y="70" width="2" height="2" fill="black"/>
<rect x="19" y="70" width="2" height="2" fill="black"/>
</svg>
