<svg width="167" height="224" viewBox="0 0 167 224" fill="none" xmlns="http://www.w3.org/2000/svg" style="image-rendering: pixelated">
<mask id="mask0_329_10698" style="mask-type:alpha" maskUnits="userSpaceOnUse" x="2" y="2" width="163" height="220">
<path d="M76.6134 2.58447V4.30755H71.4485V6.03063H68.0052V7.7537H66.2835V9.47678H64.5619V12.9229H62.8402V16.3691H61.1186V21.5383H59.3969V28.4306H57.6753V85.2922H43.9021V88.7383H40.4588V90.4614H38.7371V92.1845H37.0155V95.6306H35.2938V99.0768H33.5722V104.246H31.8505V112.861H21.5206V114.584H16.3557V116.308H12.9124V118.031H11.1907V119.754H9.46909V123.2H7.74744V126.646H6.02579V131.815H4.30414V138.708H2.58249V221.415H164.418V193.846H162.696V186.954H160.974V181.784H159.253V178.338H157.531V174.892H155.809V173.169H154.088V171.446H150.644V169.723H145.479V168H136.871V55.9999H135.15V49.1076H133.428V43.9383H131.706V40.4922H129.985V37.046H128.263V35.3229H126.541V33.5999H123.098V31.8768H117.933V30.1537H107.603V21.5383H105.881V16.3691H104.16V12.9229H102.438V9.47678H100.717V7.7537H98.9949V6.03063H95.5516V4.30755H90.3866V2.58447H76.6134Z" fill="#C4C4C4"/>
</mask>
<g mask="url(#mask0_329_10698)">
<rect x="2.58246" y="0.86145" width="163.557" height="220.554" fill="#009F00"/>
</g>
<path d="M1.72156 138.708V220.554L165.278 221.415V193.846M3.44321 138.708V131.815M5.16486 131.815V126.646M6.88651 126.646V123.2M8.60816 123.2V119.754M10.3298 119.754V117.169M12.0515 118.031V116.308M12.9123 115.446H16.3556M16.3556 113.723H21.5205M21.5205 112H30.9896M35.2937 112H30.9896M30.9896 112V104.246M32.7113 104.246V99.0769M34.4329 99.0769V95.6307M36.1546 95.6307V92.1846M37.8762 92.1846V90.4615M39.5978 90.4615V88.7384M40.4587 87.8769H43.902M43.902 86.1538H49.0669M49.0669 84.4307H56.8143M62.8401 84.4307H56.8143M56.8143 84.4307V28.4307M58.536 28.4307V21.5384M60.2576 21.5384V16.3692M61.9793 16.3692V12.923M63.7009 12.923V9.47687M65.4226 9.47687V7.75379M67.1442 7.75379V6.03071M68.0051 5.16918H71.4484M71.4484 3.4461H76.6133M76.6133 1.72302H90.3865M90.3865 3.4461H95.5515M95.5515 5.16918H98.9948M98.9948 6.89225H100.716M100.716 8.61533H102.438M103.299 9.47687V12.923M105.021 12.923V16.3692M106.742 16.3692V21.5384M108.464 21.5384V29.2923H104.16H117.933M117.933 31.0153H123.098M123.098 32.7384H126.541M127.402 33.5999V35.323M129.124 35.323V37.0461M130.845 37.0461V40.4923M132.567 40.4923V43.9384M134.289 43.9384V49.1076M136.01 49.1076V55.9999M137.732 55.9999V167.138H131.706H145.479M145.479 168.861H150.644M150.644 170.585H154.088M154.948 171.446V173.169M156.67 173.169V174.892M158.392 174.892V178.338M160.113 178.338V181.785M161.835 181.785V186.954M163.557 186.954V193.846M131.706 168.861H126.541M126.541 170.585H123.098M123.098 172.308H121.376M121.376 174.031H119.655M118.794 174.892V178.338M117.072 178.338V181.785M115.35 181.785V186.954M113.629 186.954V193.846M35.2937 113.723H40.4587M40.4587 115.446H43.902M44.7628 116.308V118.031M46.4844 118.031V119.754M48.2061 119.754V123.2M49.9277 123.2V126.646M51.6494 126.646V131.815M53.371 131.815V138.708M62.8401 86.1538H68.0051M68.0051 87.8769H71.4484M71.4484 89.5999H73.17M73.17 91.323H74.8917M75.7525 92.1846V95.6307M77.4741 95.6307V99.0769M79.1958 99.0769V104.246M80.9174 104.246V111.138M104.16 31.0153H98.9948M98.9948 32.7384H95.5515M94.6906 33.5999V35.323M92.969 35.323V37.0461M91.2473 37.0461V40.4923M89.5257 40.4923V43.9384M87.804 43.9384V49.1076M86.0824 49.1076V55.9999" stroke="black" stroke-width="2.37624"/>
<rect x="75.7524" y="8.61523" width="3.4433" height="3.44615" fill="black"/>
<rect x="87.8042" y="8.61523" width="3.4433" height="3.44615" fill="black"/>
<rect x="103.299" y="37.9075" width="3.4433" height="3.44615" fill="black"/>
<rect x="115.351" y="37.9075" width="3.4433" height="3.44615" fill="black"/>
<rect x="130.845" y="175.754" width="3.4433" height="3.44615" fill="black"/>
<rect x="142.897" y="175.754" width="3.4433" height="3.44615" fill="black"/>
<rect x="48.2061" y="91.323" width="3.4433" height="3.44615" fill="black"/>
<rect x="60.2575" y="91.323" width="3.4433" height="3.44615" fill="black"/>
<rect x="20.6597" y="120.615" width="3.4433" height="3.44615" fill="black"/>
<rect x="32.7112" y="120.615" width="3.4433" height="3.44615" fill="black"/>
</svg>
