<svg width="16" height="16" viewBox="0 0 16 16" fill="none" xmlns="http://www.w3.org/2000/svg">
<path d="M3 3H13V8H3V3Z" fill="#F0D0B0"/>
<path d="M12 1H15V3H12V1Z" fill="#F0D0B0"/>
<path d="M1 10H12V12H1V10Z" fill="#F0D0B0"/>
<path d="M5 1H10V3H5V1Z" fill="#5BDB57"/>
<path d="M4 2H12V3H4V2Z" fill="#5BDB57"/>
<path d="M3 8H12V10H3V8Z" fill="#5BDB57"/>
<path d="M1 12H4V15H1V12Z" fill="#5BDB57"/>
<path d="M5 10H7V12H5V10Z" fill="#5BDB57"/>
<path d="M12 11H14V14H12V11Z" fill="#5BDB57"/>
<path d="M13 10H15V12H13V10Z" fill="#5BDB57"/>
<path d="M12 7H13V8H12V7Z" fill="#5BDB57"/>
<path d="M13 3H14V6H13V3Z" fill="#5BDB57"/>
<path d="M5 0H10V1H5V0Z" fill="black"/>
<path d="M10 1H12V2H10V1Z" fill="black"/>
<path d="M12 0H15V1H12V0Z" fill="black"/>
<path d="M3 3H6V4H3V3Z" fill="black"/>
<path d="M10 3H13V4H10V3Z" fill="black"/>
<path d="M8 6H14V7H8V6Z" fill="black"/>
<path d="M11 9H15V10H11V9Z" fill="black"/>
<path d="M1 9H4V10H1V9Z" fill="black"/>
<path d="M3 6H5V7H3V6Z" fill="black"/>
<path d="M4 7H6V8H4V7Z" fill="black"/>
<path d="M9 10H11V11H9V10Z" fill="black"/>
<path d="M12 14H14V15H12V14Z" fill="black"/>
<path d="M1 15H3V16H1V15Z" fill="black"/>
<path d="M0 13H1V15H0V13Z" fill="black"/>
<path d="M0 10H1V12H0V10Z" fill="black"/>
<path d="M4 10H5V12H4V10Z" fill="black"/>
<path d="M7 9H8V11H7V9Z" fill="black"/>
<path d="M14 3H15V6H14V3Z" fill="black"/>
<path d="M15 1H16V3H15V1Z" fill="black"/>
<path d="M2 4H3V6H2V4Z" fill="black"/>
<path d="M15 10H16V12H15V10Z" fill="black"/>
<path d="M14 12H15V14H14V12Z" fill="black"/>
<path d="M8 3H9V5H8V3Z" fill="black"/>
<path d="M4 1H5V2H4V1Z" fill="black"/>
<path d="M3 2H4V3H3V2Z" fill="black"/>
<path d="M12 2H13V3H12V2Z" fill="black"/>
<path d="M9 5H10V6H9V5Z" fill="black"/>
<path d="M13 7H14V8H13V7Z" fill="black"/>
<path d="M12 8H13V9H12V8Z" fill="black"/>
<path d="M10 8H11V9H10V8Z" fill="black"/>
<path d="M6 8H7V9H6V8Z" fill="black"/>
<path d="M2 8H3V9H2V8Z" fill="black"/>
<path d="M12 10H13V11H12V10Z" fill="black"/>
<path d="M3 12H4V13H3V12Z" fill="black"/>
<path d="M1 12H2V13H1V12Z" fill="black"/>
<path d="M3 14H4V15H3V14Z" fill="black"/>
<path d="M5 4H7V6H5V4Z" fill="black"/>
<path d="M6 11H12V14H6V11Z" fill="black"/>
<path d="M4 12H9V15H4V12Z" fill="black"/>
<path d="M4 13H7V16H4V13Z" fill="black"/>
</svg>
