<svg width="16" height="16" viewBox="0 0 16 16" fill="none" xmlns="http://www.w3.org/2000/svg" style="image-rendering: pixelated">
<path d="M9 1H7V2H3V9H1V11H3V15H13V11H15V9H13V2H9V1Z" fill="white"/>
<path fill-rule="evenodd" clip-rule="evenodd" d="M10 0H6V1H4V2H3V3H2V4H1V6H0V11H1V12H2V14H3V15H4V16H12V15H13V14H14V12H15V11H16V6H15V4H14V3H13V2H12V1H10V0ZM10 1V2H12V3H13V4H14V6H15V11H13V10H3V11H1V6H2V4H3V3H4V2H6V1H10ZM7 11H9V13H10V11H12V12H13V14H12V15H4V14H3V12H4V11H6V13H7V11Z" fill="black"/>
<path d="M6 1H7V3H6V4H4V2H6V1Z" fill="#D42000"/>
<path d="M10 2H12V4H10V3H9V1H10V2Z" fill="#D42000"/>
<path d="M4 5H3V4H2V6H1V9H3V8H4V5Z" fill="#D42000"/>
<path d="M12 5H13V4H14V6H15V9H13V8H12V5Z" fill="#D42000"/>
<path d="M10 6H11V9H10V10H6V9H5V6H6V5H10V6Z" fill="#D42000"/>
</svg>
