<svg width="16" height="16" viewBox="0 0 16 16" fill="none" xmlns="http://www.w3.org/2000/svg">
<path d="M10 1H3V3H2V4H3V6H7V9H2V11H9V10H12V9H15V7H14V4H12V2H10V1Z" fill="white"/>
<path fill-rule="evenodd" clip-rule="evenodd" d="M14 9H12V10H10V11H9V12H8V13H7V15H8V14H9V15H13V14H15V12H12V13H10V12H11V11H12V10H14V9ZM10 13H9V14H10V13Z" fill="#4CFF75"/>
<path d="M4 12H2V13H1V14H3V15H6V14H5V13H4V12Z" fill="#4CFF75"/>
<path d="M5 0H9V1H5V0Z" fill="black"/>
<path d="M3 2V1H5V2H3Z" fill="black"/>
<path d="M2 3V2H3V3H2Z" fill="black"/>
<path d="M3 5H1V3H2V4H3V5Z" fill="black"/>
<path fill-rule="evenodd" clip-rule="evenodd" d="M5 5H3V6H5V7H7V8H1V10H2V12H1V13H0V14H1V15H3V16H13V15H15V14H16V12H15V11H14V10H15V9H16V7H15V5H14V4H13L12 3L11 2V1H9V2H11V3H12V4H13V5H14V7H15V9H14V10H12V11H11V12H10V13H9V14H8V15H7V13H8V12H9V11H10V10H9V11H4V10H2V9H7V8H9V7H7V6H5V5ZM5 13H4V12H2V13H1V14H3V15H6V14H5V13ZM5 13H7V12H5V13Z" fill="black"/>
<path d="M5 5V3H6V2H7V5H5Z" fill="black"/>
<path d="M9 14H10V13H12V12H15V14H13V15H9V14Z" fill="black"/>
<path d="M11 2H12V3H11V2Z" fill="black"/>
<path d="M12 3H13V4H12V3Z" fill="black"/>
</svg>
