<svg width="124" height="144" viewBox="0 0 124 144" fill="none" xmlns="http://www.w3.org/2000/svg" style="image-rendering: pixelated">
<path d="M66.8816 5.14282H56.5921V25.7143H66.8816V20.5714H72.0264V10.2857H66.8816V5.14282Z" fill="#F0D0B0"/>
<path d="M113.185 97.7143V87.4285H118.329V77.1428H30.8682V97.7143H82.3159V108H108.04V97.7143H113.185Z" fill="#F0D0B0"/>
<path d="M36.013 102.857V108H30.8682V113.143H25.7235V102.857H36.013Z" fill="#F0D0B0"/>
<path d="M46.3025 46.2857H51.4473V30.8571H108.04V66.8571H97.7502V72H72.0264V66.8571H51.4473V56.5714H46.3025V46.2857Z" fill="#F0D0B0"/>
<path d="M97.7502 5.14282H102.895V15.4285H97.7502V5.14282Z" fill="#F0D0B0"/>
<path d="M25.7235 118.286H5.14441V138.857H25.7235V118.286Z" fill="#F0D0B0"/>
<path d="M97.7502 10.2855H77.1711V15.4284H72.0264V20.5712H66.8816V25.7141H56.5921V35.9998H61.7368V30.857H72.0264V25.7141H82.3159V20.5712H97.7502V10.2855Z" fill="#F83800"/>
<path d="M102.895 87.4284H97.7502V82.2855H92.6054V77.1427H82.3159V82.2855H87.4607V92.5712H102.895V87.4284Z" fill="#F83800"/>
<path d="M66.8816 71.9998V77.1427H72.0264V82.2855H77.1711V92.5712H66.8816V97.7141H61.7368V87.4284H56.5921V82.2855H51.4473V77.1427H56.5921V71.9998H66.8816Z" fill="#F83800"/>
<path d="M46.3025 108H36.013V118.286H30.8682V113.143H25.7235V108H15.4339V113.143H10.2892V118.286H15.4339V123.428H20.5787V128.571H25.7235V118.286H30.8682V133.714H41.1578V128.571H46.3025V133.714H56.5921V128.571H46.3025V123.428H41.1578V113.143H46.3025V108Z" fill="#F83800"/>
<path d="M15.4339 133.714H10.2892V128.571H5.14441V138.857H15.4339V133.714Z" fill="#F83800"/>
<path d="M51.4477 0H66.882V5.14286H56.5924V36H61.7372V30.8571H72.0267V36H66.882V46.2857H72.0267V51.4286H66.882V56.5714H61.7372V51.4286H56.5924V41.1429H51.4477V46.2857H46.3029V36H51.4477V0Z" fill="black"/>
<path d="M46.3029 56.5714H41.1581V46.2857H46.3029V56.5714Z" fill="black"/>
<path d="M51.4477 61.7143H46.3029V56.5714H51.4477V61.7143Z" fill="black"/>
<path d="M46.3029 128.571V133.714H56.5924V128.571H46.3029Z" fill="black"/>
<path fill-rule="evenodd" clip-rule="evenodd" d="M97.7506 66.8571V72H72.0267V66.8571H61.7372V61.7143H51.4477V66.8571H56.5924V72H46.3029V77.1429H30.8686V82.2857H25.7238V92.5714H30.8686V97.7143H25.7238V102.857H15.4343V108H10.2895V113.143H5.14477V123.429H0V138.857H5.14477V144H20.5791V138.857H25.7238V133.714H30.8686V138.857H41.1581V133.714H46.3029V138.857H56.5924V133.714H77.1715V128.571H92.6058V123.429H102.895V118.286H108.04V108H113.185V92.5714H118.33V87.4286H123.474V77.1429H118.33V72H102.895V66.8571H108.04V61.7143H118.33V56.5714H113.185V46.2857H108.04V36H113.185V30.8571H118.33V25.7143H113.185V20.5714H102.895V15.4286H108.04V0H97.7506V5.14286H77.1715V10.2857H72.0267V5.14286H66.882V10.2857H72.0267V15.4286H77.1715V10.2857H97.7506V5.14286H102.895V15.4286H97.7506V20.5714H82.3163V25.7143H72.0267V30.8571H102.895V46.2857H108.04V56.5714H102.895V61.7143H92.6058V56.5714H82.3163V51.4286H77.1715V56.5714H72.0267V61.7143H82.3163V66.8571H97.7506ZM118.33 77.1429V87.4286H108.04V82.2857H102.895V77.1429H118.33ZM108.04 108V97.7143H102.895V108H108.04ZM46.3029 128.571H41.1581V133.714H30.8686V118.286H36.0134V108H46.3029V113.143H41.1581V123.429H46.3029V128.571ZM36.0134 108H30.8686V118.286H25.7238V133.714H20.5791V138.857H5.14477V123.429H10.2895V113.143H15.4343V108H25.7238V102.857H36.0134V108ZM56.5924 87.4286V97.7143H46.3029V92.5714H30.8686V82.2857H51.4477V87.4286H56.5924ZM56.5924 87.4286V82.2857H51.4477V77.1429H56.5924V72H66.882V77.1429H72.0267V82.2857H77.1715V92.5714H66.882V97.7143H61.7372V87.4286H56.5924ZM92.6058 82.2857H97.7506V87.4286H102.895V92.5714H87.461V82.2857H82.3163V77.1429H92.6058V82.2857ZM82.3163 97.7143H92.6058V108H82.3163V97.7143Z" fill="black"/>
<path d="M92.6058 36H97.7506V46.2857H92.6058V36Z" fill="black"/>
<path d="M87.461 36H82.3163V46.2857H87.461V36Z" fill="black"/>
</svg>
