<svg width="76" height="109" viewBox="0 0 76 109" fill="none" xmlns="http://www.w3.org/2000/svg" style="image-rendering: pixelated">
<path d="M71.25 0H57V4.73913H52.25V14.2174H57V9.47826H61.75V4.73913H71.25V0Z" fill="black"/>
<path d="M71.25 18.9565H76V4.73913H71.25V18.9565Z" fill="black"/>
<path d="M66.5 23.6957H71.25V18.9565H66.5V23.6957Z" fill="black"/>
<path fill-rule="evenodd" clip-rule="evenodd" d="M61.75 28.4348V23.6957H66.5V28.4348H71.25V37.913H76V52.1304H71.25V61.6087H66.5V66.3478H57V71.087H71.25V75.8261H76V90.0435H71.25V99.5218H66.5V104.261H57V109H47.5V104.261H57V99.5218H66.5V90.0435H71.25V80.5652H66.5V75.8261H57V80.5652H52.25V85.3044H47.5V94.7826H52.25V90.0435H57V85.3044H61.75V90.0435H57V94.7826H52.25V99.5218H42.75V71.087H33.25V99.5218H23.75V94.7826H19V90.0435H14.25V85.3044H19V90.0435H23.75V94.7826H28.5V85.3044H23.75V80.5652H19V75.8261H9.5V80.5652H4.75V90.0435H9.5V99.5218H19V104.261H28.5V109H19V104.261H9.5V99.5218H4.75V90.0435H0V75.8261H4.75V71.087H19V66.3478H9.5V61.6087H4.75V52.1304H0V37.913H4.75V28.4348H9.5V23.6957H4.75V18.9565H0V4.73913H4.75V0H19V4.73913H23.75V14.2174H28.5V23.6957H33.25V28.4348H42.75V23.6957H47.5V14.2174H52.25V23.6957H47.5V28.4348H42.75V33.1739H33.25V28.4348H28.5V23.6957H23.75V14.2174H19V9.47826H14.25V4.73913H4.75V18.9565H9.5V23.6957H14.25V28.4348H19V33.1739H23.75V37.913H28.5V42.6522H47.5V37.913H52.25V33.1739H57V28.4348H61.75ZM61.75 28.4348V33.1739H57V37.913H52.25V42.6522H47.5V47.3913H28.5V42.6522H23.75V37.913H19V33.1739H14.25V28.4348H9.5V37.913H4.75V52.1304H9.5V61.6087H19V66.3478H57V61.6087H66.5V52.1304H71.25V37.913H66.5V28.4348H61.75ZM19 71.087V75.8261H23.75V80.5652H28.5V71.087H19ZM52.25 80.5652V75.8261H57V71.087H47.5V80.5652H52.25Z" fill="black"/>
<path d="M23.7498 0H18.9998V4.73913H23.7498V0Z" fill="white"/>
<path d="M71.2498 4.73913H61.7498V9.47826H56.9998V14.2174H52.2498V23.6957H47.4998V28.4348H42.7498V33.1739H33.2498V28.4348H28.4998V23.6957H23.7498V14.2174H18.9998V9.47826H14.2498V4.73913H4.74976V18.9565H9.49976V23.6957H14.2498V28.4348H18.9998V33.1739H23.7498V37.913H28.4998V42.6522H47.4998V37.913H52.2498V33.1739H56.9998V28.4348H61.7498V23.6957H66.4998V18.9565H71.2498V4.73913Z" fill="white"/>
<path d="M23.7498 14.2174H28.4998V9.47826H23.7498V14.2174Z" fill="white"/>
<path d="M33.2498 23.6957V28.4348H42.7498V23.6957H33.2498Z" fill="white"/>
<path d="M33.2498 23.6957H28.4998V18.9565H33.2498V23.6957Z" fill="white"/>
<path d="M42.7498 23.6957H47.4998V18.9565H42.7498V23.6957Z" fill="white"/>
<path d="M52.2498 14.2174V9.47826H47.4998V14.2174H52.2498Z" fill="white"/>
<path d="M56.9998 0H52.2498V4.73913H56.9998V0Z" fill="white"/>
<path d="M61.7498 37.913H66.4998V42.6522H61.7498V37.913Z" fill="white"/>
<path d="M71.2498 47.3913H66.4998V52.1304H71.2498V47.3913Z" fill="white"/>
<path d="M56.9998 56.8696H61.7498V61.6087H56.9998V56.8696Z" fill="white"/>
<path d="M47.4998 47.3913H42.7498V52.1304H47.4998V47.3913Z" fill="white"/>
<path d="M33.2498 61.6087H42.7498V66.3478H33.2498V61.6087Z" fill="white"/>
<path d="M33.2498 47.3913H28.4998V52.1304H33.2498V47.3913Z" fill="white"/>
<path d="M14.2498 56.8696H18.9998V61.6087H14.2498V56.8696Z" fill="white"/>
<path d="M9.49976 47.3913H4.74976V52.1304H9.49976V47.3913Z" fill="white"/>
<path d="M9.49976 37.913H14.2498V42.6522H9.49976V37.913Z" fill="white"/>
<path d="M66.4998 28.4348H61.7498V33.1739H56.9998V37.9131H52.2498V42.6522H47.4998V52.1305H42.7498V47.3913H33.2498V52.1305H28.4998V42.6522H23.7498V37.9131H18.9998V33.1739H14.2498V28.4348H9.49976V37.9131H14.2498V42.6522H9.49976V37.9131H4.74976V47.3913H9.49976V61.6087H14.2498V56.8696H18.9998V66.3479H33.2498V61.6087H42.7498V66.3479H56.9998V56.8696H61.7498V61.6087H66.4998V47.3913H71.2498V37.9131H66.4998V42.6522H61.7498V37.9131H66.4998V28.4348Z" fill="#E64434"/>
<path d="M42.7498 71.0874H33.2498V99.5222H23.7498V94.7831H18.9998V90.0439H14.2498V85.3048H18.9998V90.0439H23.7498V94.7831H28.4998V85.3048H23.7498V80.5657H18.9998V75.8265H9.49976V80.5657H4.74976V90.0439H9.49976V99.5222H18.9998V104.261H28.4998V109H47.4998V104.261H56.9998V99.5222H66.4998V90.0439H71.2498V80.5657H66.4998V75.8265H56.9998V80.5657H52.2498V85.3048H47.4998V94.7831H52.2498V90.0439H56.9998V85.3048H61.7498V90.0439H56.9998V94.7831H52.2498V99.5222H42.7498V71.0874Z" fill="#4CFF75"/>
</svg>
