<svg width="12" height="15" viewBox="0 0 12 15" fill="none" xmlns="http://www.w3.org/2000/svg">
<path d="M1 3H11V6H1V3Z" fill="#F0D0B0"/>
<path d="M3 5H9V8H3V5Z" fill="#F0D0B0"/>
<path d="M2 11H9V13H2V11Z" fill="#F0D0B0"/>
<path d="M2 1H11V3H2V1Z" fill="#5BDB57"/>
<path d="M1 8H5V11H1V8Z" fill="#5BDB57"/>
<path d="M7 8H9V10H7V8Z" fill="#5BDB57"/>
<path d="M4 12H8V14H4V12Z" fill="#5BDB57"/>
<path d="M3 13H8V14H3V13Z" fill="#5BDB57"/>
<path d="M3 0H9V1H3V0Z" fill="black"/>
<path d="M9 1H11V2H9V1Z" fill="black"/>
<path d="M8 3H11V4H8V3Z" fill="black"/>
<path d="M6 6H11V7H6V6Z" fill="black"/>
<path d="M1 3H4V4H1V3Z" fill="black"/>
<path d="M3 4H5V6H3V4Z" fill="black"/>
<path d="M5 9H7V12H5V9Z" fill="black"/>
<path d="M7 10H10V11H7V10Z" fill="black"/>
<path d="M7 12H10V13H7V12Z" fill="black"/>
<path d="M2 14H9V15H2V14Z" fill="black"/>
<path d="M4 8H7V9H4V8Z" fill="black"/>
<path d="M1 6H3V7H1V6Z" fill="black"/>
<path d="M2 7H4V8H2V7Z" fill="black"/>
<path d="M1 8H2V9H1V8Z" fill="black"/>
<path d="M2 13H3V14H2V13Z" fill="black"/>
<path d="M8 10H9V14H8V10Z" fill="black"/>
<path d="M9 9H10V12H9V9Z" fill="black"/>
<path d="M11 4H12V6H11V4Z" fill="black"/>
<path d="M6 3H7V5H6V3Z" fill="black"/>
<path d="M0 4H1V6H0V4Z" fill="black"/>
<path d="M0 9H1V11H0V9Z" fill="black"/>
<path d="M1 11H2V13H1V11Z" fill="black"/>
<path d="M8 8H9V9H8V8Z" fill="black"/>
<path d="M9 7H10V8H9V7Z" fill="black"/>
<path d="M7 5H8V6H7V5Z" fill="black"/>
<path d="M11 2H12V3H11V2Z" fill="black"/>
<path d="M2 2H3V1H2V2Z" fill="black"/>
<path d="M1 3H2V2H1V3Z" fill="black"/>
</svg>
