<svg width="56" height="8" viewBox="0 0 56 8" fill="none" xmlns="http://www.w3.org/2000/svg">
<path d="M15 1H16V7H15V8H9V7H8V1H9V0H15V1Z" fill="black"/>
<path d="M14 2H15V6H14V7H10V6H9V2H10V1H14V2Z" fill="#D82800"/>
<path d="M7 1H8V7H7V8H1V7H0V1H1V0H7V1Z" fill="black"/>
<path d="M6 2H7V6H6V7H2V6H1V2H2V1H6V2Z" fill="#D82800"/>
<path d="M23 1H24V7H23V8H17V7H16V1H17V0H23V1Z" fill="black"/>
<path d="M22 2H23V6H22V7H18V6H17V2H18V1H22V2Z" fill="#D82800"/>
<path d="M31 1H32V7H31V8H25V7H24V1H25V0H31V1Z" fill="black"/>
<path d="M30 2H31V6H30V7H26V6H25V2H26V1H30V2Z" fill="#D82800"/>
<path d="M30 2H31V6H30V7H26V6H25V2H26V1H30V2Z" fill="#4CDC48"/>
<path d="M39 1H40V7H39V8H33V7H32V1H33V0H39V1Z" fill="black"/>
<path d="M38 2H39V6H38V7H34V6H33V2H34V1H38V2Z" fill="#D82800"/>
<path d="M47 1H48V7H47V8H41V7H40V1H41V0H47V1Z" fill="black"/>
<path d="M46 2H47V6H46V7H42V6H41V2H42V1H46V2Z" fill="#D82800"/>
<path d="M55 1H56V7H55V8H49V7H48V1H49V0H55V1Z" fill="black"/>
<path d="M54 2H55V6H54V7H50V6H49V2H50V1H54V2Z" fill="#D82800"/>
</svg>
