<svg width="16" height="15" viewBox="0 0 16 15" fill="none" xmlns="http://www.w3.org/2000/svg" style="image-rendering: pixelated">
<path d="M8 0H9V1H8V0Z" fill="#007985"/>
<path d="M7 2V1H8V2H7Z" fill="#007985"/>
<path d="M6 4V2H7V4H6Z" fill="#007985"/>
<path d="M4 4H6V6H5V5H4V4Z" fill="#007985"/>
<path fill-rule="evenodd" clip-rule="evenodd" d="M2 3V2H3V3H2ZM3 3H4V4H3V3Z" fill="#007985"/>
<path d="M1 8V3H2V8H1Z" fill="#007985"/>
<path d="M1 8V9H0V8H1Z" fill="#007985"/>
<path d="M10 2H9V1H10V2Z" fill="#007985"/>
<path d="M11 4H10V2H11V4Z" fill="#007985"/>
<path d="M13 4V5H12V6H11V4H13Z" fill="#007985"/>
<path d="M14 3V4H13V3H14Z" fill="#007985"/>
<path d="M14 3V2H16V8H15V3H14Z" fill="#007985"/>
<path d="M15 9H16V10H15V9Z" fill="#007985"/>
<path d="M16 12H14V13H15V14H16V12Z" fill="#007985"/>
<path d="M12 15V14H6V15H12Z" fill="#007985"/>
<path d="M1 14H2V15H1V14Z" fill="#007985"/>
<path d="M3 13H4V11H3V10H1V11H0V13H2V14H3V13Z" fill="#007985"/>
<path d="M1 11H2V12H1V11Z" fill="#007985"/>
<path d="M9 1H8V2H7V4H6V6H5V5H4V4H3V3H2V8H3V9H0V10H3V11H4V12H5V13H6V14H12V13H14V12H16V11H13V12H11V13H6V12H5V11H4V10H3V9H5V8H6V6H7V7H10V6H11V8H12V9H14V8H15V3H14V4H13V5H12V6H11V4H10V2H9V1Z" fill="white"/>
<path d="M7 8H10V9H11V11H10V12H7V11H6V9H7V8Z" fill="white"/>
<path d="M1 11H2V12H1V11Z" fill="white"/>
<path fill-rule="evenodd" clip-rule="evenodd" d="M6 6H7V7H10V6H11V8H12V9H14V8H15V10H16V11H13V12H11V13H6V12H5V11H4V10H3V9H5V8H6V6ZM10 9H11V11H10V12H7V11H6V9H7V8H10V9Z" fill="#E64434"/>
<path d="M3 9V8H1V9H3Z" fill="#E64434"/>
<path d="M5 12V13H6V15H2V14H3V13H4V12H5Z" fill="#E64434"/>
<path d="M15 13H12V15H16V14H15V13Z" fill="#E64434"/>
</svg>
