<svg width="57" height="48" viewBox="0 0 57 48" fill="none" xmlns="http://www.w3.org/2000/svg" style="image-rendering: pixelated">
<rect x="1" y="1" width="45" height="46" fill="#FCFCFC"/>
<path d="M45 2H46V3H45V2Z" fill="#93FCEE"/>
<path d="M43 1H45V3H43V1Z" fill="#93FCEE"/>
<rect x="43" y="3" width="3" height="43" fill="#93FCEE"/>
<rect x="2" y="46" width="43" height="1" fill="#93FCEE"/>
<rect x="1" y="45" width="1" height="1" fill="#93FCEE"/>
<path d="M48 10H57V46H48V10Z" fill="black"/>
<path d="M48 8H56V9H48V8Z" fill="black"/>
<path d="M48 9H57V10H48V9Z" fill="black"/>
<path d="M48 46H57V47H48V46Z" fill="black"/>
<path d="M49 47H57V48H49V47Z" fill="black"/>
<rect y="2" width="1" height="44" fill="black"/>
<rect x="46" y="2" width="2" height="44" fill="black"/>
<rect x="2" width="43" height="1" fill="black"/>
<rect x="2" y="47" width="43" height="1" fill="black"/>
<path d="M47 0V2H45V0L47 0Z" fill="black"/>
<path d="M48 1V2H45V1L48 1Z" fill="black"/>
<path d="M47 48V46H45V48H47Z" fill="black"/>
<path d="M48 47V46H45V47H48Z" fill="black"/>
<path d="M0 1H2V2H0V1Z" fill="black"/>
<path d="M1 0H2V2H1V0Z" fill="black"/>
<path d="M1 48L1 46H2V48H1Z" fill="black"/>
<path d="M0 47L0 46H2V47H0Z" fill="black"/>
<path d="M7 2H3V3H2V7H3V8H7V7H8V3H7V2Z" fill="black"/>
<path d="M6 3H4V4H3V6H4V7H6V6H7V4H6V3Z" fill="#93FCEE"/>
<rect x="4" y="5" width="1" height="1" fill="black"/>
<rect x="5" y="4" width="1" height="1" fill="black"/>
<path d="M44 2H40V3H39V7H40V8H44V7H45V3H44V2Z" fill="black"/>
<path d="M43 3H41V4H40V6H41V7H43V6H44V4H43V3Z" fill="#93FCEE"/>
<rect x="41" y="5" width="1" height="1" fill="black"/>
<rect x="42" y="4" width="1" height="1" fill="black"/>
<path d="M44 40H40V41H39V45H40V46H44V45H45V41H44V40Z" fill="black"/>
<path d="M43 41H41V42H40V44H41V45H43V44H44V42H43V41Z" fill="#93FCEE"/>
<rect x="41" y="43" width="1" height="1" fill="black"/>
<rect x="42" y="42" width="1" height="1" fill="black"/>
<path d="M7 40H3V41H2V45H3V46H7V45H8V41H7V40Z" fill="black"/>
<path d="M6 41H4V42H3V44H4V45H6V44H7V42H6V41Z" fill="#93FCEE"/>
<rect x="4" y="43" width="1" height="1" fill="black"/>
<rect x="5" y="42" width="1" height="1" fill="black"/>
</svg>
