<svg width="136" height="115" viewBox="0 0 136 115" fill="none" xmlns="http://www.w3.org/2000/svg" style="image-rendering: pixelated">
<rect x="2.37624" y="2.41577" width="106.931" height="109.307" fill="#FCFCFC"/>
<path d="M106.931 4.79201H109.307V7.16825H106.931V4.79201Z" fill="#93FCEE"/>
<path d="M102.178 2.41577H106.931V7.16825H102.178V2.41577Z" fill="#93FCEE"/>
<rect x="102.178" y="7.16821" width="7.12871" height="102.178" fill="#93FCEE"/>
<rect x="4.75249" y="109.346" width="102.178" height="2.37624" fill="#93FCEE"/>
<rect x="2.37626" y="106.97" width="2.37624" height="2.37624" fill="#93FCEE"/>
<path d="M114.059 23.802H135.446V109.347H114.059V23.802Z" fill="black"/>
<path d="M114.059 19.0494H133.069V21.4257H114.059V19.0494Z" fill="black"/>
<path d="M114.059 21.4257H135.446V23.8019H114.059V21.4257Z" fill="black"/>
<path d="M114.059 109.346H135.446V111.723H114.059V109.346Z" fill="black"/>
<path d="M116.436 111.723H135.446V114.099H116.436V111.723Z" fill="black"/>
<rect y="4.79199" width="2.37624" height="104.554" fill="black"/>
<rect x="109.307" y="4.79199" width="4.75248" height="104.554" fill="black"/>
<rect x="4.75248" y="0.0395508" width="102.178" height="2.37624" fill="black"/>
<rect x="4.75248" y="111.723" width="102.178" height="2.37624" fill="black"/>
<path d="M111.683 0.0395508V4.79203H106.931V0.0395508L111.683 0.0395508Z" fill="black"/>
<path d="M114.059 2.41579V4.79203H106.931V2.41579L114.059 2.41579Z" fill="black"/>
<path d="M111.683 114.099V109.346H106.931V114.099H111.683Z" fill="black"/>
<path d="M114.059 111.723V109.346H106.931V111.723H114.059Z" fill="black"/>
<path d="M0 2.41579H4.75248V4.79203H0V2.41579Z" fill="black"/>
<path d="M2.37624 0.0395508H4.75248V4.79203H2.37624V0.0395508Z" fill="black"/>
<path d="M2.37624 114.099L2.37624 109.346H4.75248V114.099H2.37624Z" fill="black"/>
<path d="M0 111.723L0 109.346H4.75248V111.723H0Z" fill="black"/>
<path d="M16.6337 4.79199H7.12871V7.16823H4.75248V16.6732H7.12871V19.0494H16.6337V16.6732H19.0099V7.16823H16.6337V4.79199Z" fill="black"/>
<path d="M14.2575 7.16821H9.50499V9.54445H7.12875V14.2969H9.50499V16.6732H14.2575V14.2969H16.6337V9.54445H14.2575V7.16821Z" fill="#93FCEE"/>
<rect x="9.50499" y="11.9208" width="2.37624" height="2.37624" fill="black"/>
<rect x="11.8812" y="9.54456" width="2.37624" height="2.37624" fill="black"/>
<path d="M104.554 4.79199H95.0495V7.16823H92.6733V16.6732H95.0495V19.0494H104.554V16.6732H106.931V7.16823H104.554V4.79199Z" fill="black"/>
<path d="M102.178 7.16821H97.4257V9.54445H95.0495V14.2969H97.4257V16.6732H102.178V14.2969H104.554V9.54445H102.178V7.16821Z" fill="#93FCEE"/>
<rect x="97.4257" y="11.9208" width="2.37624" height="2.37624" fill="black"/>
<rect x="99.802" y="9.54456" width="2.37624" height="2.37624" fill="black"/>
<path d="M104.554 95.0891H95.0495V97.4653H92.6733V106.97H95.0495V109.347H104.554V106.97H106.931V97.4653H104.554V95.0891Z" fill="black"/>
<path d="M102.178 97.4653H97.4257V99.8416H95.0495V104.594H97.4257V106.97H102.178V104.594H104.554V99.8416H102.178V97.4653Z" fill="#93FCEE"/>
<rect x="97.4257" y="102.218" width="2.37624" height="2.37624" fill="black"/>
<rect x="99.802" y="99.8416" width="2.37624" height="2.37624" fill="black"/>
<path d="M16.6337 95.0891H7.12875V97.4653H4.75251V106.97H7.12875V109.347H16.6337V106.97H19.0099V97.4653H16.6337V95.0891Z" fill="black"/>
<path d="M14.2575 97.4653H9.50502V99.8416H7.12878V104.594H9.50502V106.97H14.2575V104.594H16.6337V99.8416H14.2575V97.4653Z" fill="#93FCEE"/>
<rect x="9.50502" y="102.218" width="2.37624" height="2.37624" fill="black"/>
<rect x="11.8813" y="99.8416" width="2.37624" height="2.37624" fill="black"/>
</svg>
