<svg width="56" height="80" viewBox="0 0 56 80" fill="none" xmlns="http://www.w3.org/2000/svg">
<rect x="1" y="1" width="46" height="78" fill="#41D83D"/>
<path d="M46 2H47V3H46V2Z" fill="#009F00"/>
<path d="M44 1H46V3H44V1Z" fill="#009F00"/>
<rect x="44" y="3" width="3" height="75" fill="#009F00"/>
<rect x="2" y="78" width="44" height="1" fill="#009F00"/>
<rect x="1" y="77" width="1" height="1" fill="#009F00"/>
<path d="M47 10H56V78H47V10Z" fill="black"/>
<path d="M47 8H55V9H47V8Z" fill="black"/>
<path d="M47 9H56V10H47V9Z" fill="black"/>
<path d="M47 78H56V79H47V78Z" fill="black"/>
<path d="M48 79H56V80H48V79Z" fill="black"/>
<rect y="2" width="1" height="76" fill="black"/>
<rect x="47" y="2" width="1" height="76" fill="black"/>
<rect x="2" width="44" height="1" fill="black"/>
<rect x="2" y="79" width="44" height="1" fill="black"/>
<path d="M47 0V2H46V0L47 0Z" fill="black"/>
<path d="M48 1V2H46V1L48 1Z" fill="black"/>
<path d="M47 80V78H46V80H47Z" fill="black"/>
<path d="M48 79V78H46V79H48Z" fill="black"/>
<path d="M0 1H2V2H0V1Z" fill="black"/>
<path d="M1 0H2V2H1V0Z" fill="black"/>
<path d="M1 80L1 78H2V80H1Z" fill="black"/>
<path d="M0 79L0 78H2V79H0Z" fill="black"/>
<path d="M7 2H3V3H2V7H3V8H7V7H8V3H7V2Z" fill="black"/>
<path d="M6 3H4V4H3V6H4V7H6V6H7V4H6V3Z" fill="#93FCEE"/>
<rect x="4" y="5" width="1" height="1" fill="black"/>
<rect x="5" y="4" width="1" height="1" fill="black"/>
<path d="M45 2H41V3H40V7H41V8H45V7H46V3H45V2Z" fill="black"/>
<path d="M44 3H42V4H41V6H42V7H44V6H45V4H44V3Z" fill="#93FCEE"/>
<rect x="42" y="5" width="1" height="1" fill="black"/>
<rect x="43" y="4" width="1" height="1" fill="black"/>
<path d="M45 72H41V73H40V77H41V78H45V77H46V73H45V72Z" fill="black"/>
<path d="M44 73H42V74H41V76H42V77H44V76H45V74H44V73Z" fill="#93FCEE"/>
<rect x="42" y="75" width="1" height="1" fill="black"/>
<rect x="43" y="74" width="1" height="1" fill="black"/>
<path d="M7 72H3V73H2V77H3V78H7V77H8V73H7V72Z" fill="black"/>
<path d="M6 73H4V74H3V76H4V77H6V76H7V74H6V73Z" fill="#93FCEE"/>
<rect x="4" y="75" width="1" height="1" fill="black"/>
<rect x="5" y="74" width="1" height="1" fill="black"/>
</svg>
