<svg width="48" height="48" viewBox="0 0 48 48" fill="none" xmlns="http://www.w3.org/2000/svg" style="image-rendering: pixelated">
<path d="M45 0H3V3H0V45H3V48H45V45H48V3H45V0Z" fill="black"/>
<path d="M42.375 3H5.625V5.625H3V42.375H5.625V45H42.375V42.375H45V5.625H42.375V3Z" fill="#3CBCFC"/>
<path d="M6 3H18V6H27V9H3V6H6V3Z" fill="#FCFCFC"/>
<path d="M30 3H42V6H45V12H42V9H36V6H30V3Z" fill="#FCFCFC"/>
<path d="M9 12V18H3V12H9Z" fill="#FCFCFC"/>
<path d="M9 42V36H3V42H6V45H12V42H9Z" fill="#FCFCFC"/>
<path d="M9 33V21H3V33H9Z" fill="#FCFCFC"/>
<path d="M42.375 3H5.625V5.625H3V42.375H5.625V45H42.375V42.375H45V5.625H42.375V3Z" fill="#747474"/>
<path d="M6 3H18V6H27V9H3V6H6V3Z" fill="#FCFCFC"/>
<path d="M30 3H42V6H45V12H42V9H36V6H30V3Z" fill="#FCFCFC"/>
<path d="M9 12V18H3V12H9Z" fill="#FCFCFC"/>
<path d="M9 42V36H3V42H6V45H12V42H9Z" fill="#FCFCFC"/>
<path d="M9 33V21H3V33H9Z" fill="#FCFCFC"/>
<path d="M42.375 3H5.625V5.625H3V42.375H5.625V45H42.375V42.375H45V5.625H42.375V3Z" fill="#FC8E2E"/>
<path d="M6 3H18V6H27V9H3V6H6V3Z" fill="#FCB5A8"/>
<path d="M30 3H42V6H45V12H42V9H36V6H30V3Z" fill="#FCB5A8"/>
<path d="M9 12V18H3V12H9Z" fill="#FCB5A8"/>
<path d="M9 42V36H3V42H6V45H12V42H9Z" fill="#FCB5A8"/>
<path d="M9 33V21H3V33H9Z" fill="#FCB5A8"/>
<path d="M18 9H9V12H15V15H24V21H27V30H24V39H18V42H15V45H21V42H24V39H27V33H30V18H27V12H18V9Z" fill="black"/>
<path d="M33 42V39H36V33H39V18H36V12H33V9H39V15H42V36H39V42H36V45H27V42H33Z" fill="black"/>
<path d="M9 30V36H12V33H18V30H21V24H18V21H15V18H9V21H12V24H15V30H9Z" fill="black"/>
</svg>
