<svg width="44" height="44" viewBox="0 0 46 46" fill="none" xmlns="http://www.w3.org/2000/svg" style="image-rendering: pixelated">
<path d="M43.1436 0H2.87624V2.87624H0V43.1436H2.87624V46.0198H43.1436V43.1436H46.0198V2.87624H43.1436V0Z" fill="black"/>
<path d="M40.6268 2.87622H5.39293V5.39293H2.87622V40.6268H5.39293V43.1435H40.6268V40.6268H43.1435V5.39293H40.6268V2.87622Z" fill="#3CBCFC"/>
<path d="M5.75246 2.87622H17.2574V5.75246H25.8861V8.6287H2.87622V5.75246H5.75246V2.87622Z" fill="#FCFCFC"/>
<path d="M28.7624 2.87622H40.2673V5.75246H43.1435V11.5049H40.2673V8.6287H34.5148V5.75246H28.7624V2.87622Z" fill="#FCFCFC"/>
<path d="M8.6287 11.5049V17.2574H2.87622V11.5049H8.6287Z" fill="#FCFCFC"/>
<path d="M8.6287 40.2673V34.5148H2.87622V40.2673H5.75246V43.1435H11.5049V40.2673H8.6287Z" fill="#FCFCFC"/>
<path d="M8.6287 31.6386V20.1336H2.87622V31.6386H8.6287Z" fill="#FCFCFC"/>
<path d="M40.6268 2.87622H5.39293V5.39293H2.87622V40.6268H5.39293V43.1435H40.6268V40.6268H43.1435V5.39293H40.6268V2.87622Z" fill="#747474"/>
<path d="M5.75246 2.87622H17.2574V5.75246H25.8861V8.6287H2.87622V5.75246H5.75246V2.87622Z" fill="#FCFCFC"/>
<path d="M28.7624 2.87622H40.2673V5.75246H43.1435V11.5049H40.2673V8.6287H34.5148V5.75246H28.7624V2.87622Z" fill="#FCFCFC"/>
<path d="M8.6287 11.5049V17.2574H2.87622V11.5049H8.6287Z" fill="#FCFCFC"/>
<path d="M8.6287 40.2673V34.5148H2.87622V40.2673H5.75246V43.1435H11.5049V40.2673H8.6287Z" fill="#FCFCFC"/>
<path d="M8.6287 31.6386V20.1336H2.87622V31.6386H8.6287Z" fill="#FCFCFC"/>
<path d="M40.6268 2.87622H5.39293V5.39293H2.87622V40.6268H5.39293V43.1435H40.6268V40.6268H43.1435V5.39293H40.6268V2.87622Z" fill="#FC8E2E"/>
<path d="M5.75246 2.87622H17.2574V5.75246H25.8861V8.6287H2.87622V5.75246H5.75246V2.87622Z" fill="#FCB5A8"/>
<path d="M28.7624 2.87622H40.2673V5.75246H43.1435V11.5049H40.2673V8.6287H34.5148V5.75246H28.7624V2.87622Z" fill="#FCB5A8"/>
<path d="M8.6287 11.5049V17.2574H2.87622V11.5049H8.6287Z" fill="#FCB5A8"/>
<path d="M8.6287 40.2673V34.5148H2.87622V40.2673H5.75246V43.1435H11.5049V40.2673H8.6287Z" fill="#FCB5A8"/>
<path d="M8.6287 31.6386V20.1336H2.87622V31.6386H8.6287Z" fill="#FCB5A8"/>
<path d="M17.2574 8.62866H8.62872V11.5049H14.3812V14.3811H23.0099V20.1336H25.8861V28.7623H23.0099V37.391H17.2574V40.2673H14.3812V43.1435H20.1337V40.2673H23.0099V37.391H25.8861V31.6386H28.7624V17.2574H25.8861V11.5049H17.2574V8.62866Z" fill="black"/>
<path d="M31.6386 40.2673V37.391H34.5149V31.6386H37.3911V17.2574H34.5149V11.5049H31.6386V8.62866H37.3911V14.3811H40.2673V34.5148H37.3911V40.2673H34.5149V43.1435H25.8861V40.2673H31.6386Z" fill="black"/>
<path d="M8.62872 28.7623V34.5148H11.505V31.6386H17.2574V28.7623H20.1337V23.0098H17.2574V20.1336H14.3812V17.2574H8.62872V20.1336H11.505V23.0098H14.3812V28.7623H8.62872Z" fill="black"/>
</svg>
