<svg width="144" height="129" viewBox="0 0 144 129" fill="none" xmlns="http://www.w3.org/2000/svg">
<path d="M100 1H92V2H89V3H87V4H86V5H85V7H84V9H83V12H82V16H81V49H73V51H71V52H70V53H69V55H68V57H67V60H66V65H60V66H57V67H55V68H54V69H53V71H52V73H51V76H50V79.5H49.5V80.5H48.5V97.5H45.5V92.5H44.5V89.5H43.5V87.5H42.5V85.5H41.5V84.5H40.5V83.5H38.5V82.5H35.5V81.5H27.5V82.5H24.5V83.5H22.5V84.5H21.5V85.5H20.5V87.5H19.5V89.5H18.5V92.5H17.5V96.5H16.5V113.5H11.5V114.5H8.5V115.5H6.5V116.5H5.5V117.5H4.5V119.5H3.5V121.5H2.5V124.5H1.5V127.5H50V128H143V112H142V108H141V105H140V103H139V101H138V100H137V99H135V98H132V97H127V32H126V28H125V25H124V23H123V21H122V20H121V19H119V18H116V17H110V12H109V9H108V7H107V5H106V4H105V3H103V2H100.5V1.5H100V1Z" fill="#009F00"/>
<rect x="76" y="54" width="2" height="2" fill="black"/>
<rect x="82" y="54" width="2" height="2" fill="black"/>
<rect x="60" y="70" width="2" height="2" fill="black"/>
<rect x="66" y="70" width="2" height="2" fill="black"/>
<rect x="44" y="101" width="2" height="2" fill="black"/>
<rect x="50" y="101" width="2" height="2" fill="black"/>
<rect x="27" y="86" width="2" height="2" fill="black"/>
<rect x="33" y="86" width="2" height="2" fill="black"/>
<rect x="11" y="118" width="2" height="2" fill="black"/>
<rect x="17" y="118" width="2" height="2" fill="black"/>
<rect x="92" y="6" width="2" height="2" fill="black"/>
<rect x="98" y="6" width="2" height="2" fill="black"/>
<rect x="108" y="22" width="2" height="2" fill="black"/>
<rect x="114" y="22" width="2" height="2" fill="black"/>
<rect x="124" y="102" width="2" height="2" fill="black"/>
<rect x="130" y="102" width="2" height="2" fill="black"/>
<path d="M49.5 79.5V76M50.5 76V73M51.5 73V71M52.5 71V69M53.5 69V67.5M54.5 68V67M55 66.5H57M57 65.5H60M60 64.5H65.5M68 64.5H65.5M65.5 64.5V60M66.5 60V57M67.5 57V55M68.5 55V53M69.5 53V52M70.5 52V51M71 50.5H73M73 49.5H76M76 48.5H80.5M84 48.5H80.5M80.5 48.5V16M81.5 16V12M82.5 12V9M83.5 9V7M84.5 7V5M85.5 5V4M86.5 4V3M87 2.5H89M89 1.5H92M92 0.5H100M100 1.5H103M103 2.5H105M105 3.5H106M106 4.5H107M107.5 5V7M108.5 7V9M109.5 9V12M110.5 12V16.5H108H116M116 17.5H119M119 18.5H121M121.5 19V20M122.5 20V21M123.5 21V23M124.5 23V25M125.5 25V28M126.5 28V32M127.5 32V96.5H124H132M132 97.5H135M135 98.5H137M137.5 99V100M138.5 100V101M139.5 101V103M140.5 103V105M141.5 105V108M142.5 108V112M143.5 112V128H48.5H30M124 97.5H121M121 98.5H119M119 99.5H118M118 100.5H117M116.5 101V103M115.5 103V105M114.5 105V108M113.5 108V112M68 65.5H71M71 66.5H73M73.5 67V68M74.5 68V69M75.5 69V71M76.5 71V73M77.5 73V76M78.5 76V80M84 49.5H87M87 50.5H89M89 51.5H90M90 52.5H91M91.5 53V55M92.5 55V57M93.5 57V60M94.5 60V64M108 17.5H105M105 18.5H103M102.5 19V20M101.5 20V21M100.5 21V23M99.5 23V25M98.5 25V28M97.5 28V32M2 121.5V124.5H1V128H30M3 121.5V119.5M4 119.5V117.5M5 117.5V116.5M6 116.5V115.5M6.5 115H8.5M8.5 114H11.5M11.5 113H16M19.5 113H16M16 113V96.5M17 96.5V92.5M18 92.5V89.5M19 89.5V87.5M20 87.5V85.5M21 85.5V84.5M22 84.5V83.5M22.5 83H24.5M24.5 82H27.5M27.5 81H35.5M35.5 82H38.5M38.5 83H40.5M41 83.5V84.5M42 84.5V85.5M43 85.5V87.5M44 87.5V89.5M45 89.5V92.5M46 92.5V97M44 97H48M51.5 97H48M48 97V80.5M51.5 98H54.5M54.5 99H56.5M56.5 100H57.5M57.5 101H58.5M59 101.5V103.5M60 103.5V105.5M61 105.5V108.5M62 108.5V112.5M43.5 98H40.5M40.5 99H38.5M38 99.5V100.5M37 100.5V101.5M36 101.5V103.5M35 103.5V105.5M34 105.5V108.5M33 108.5V112.5M19.5 114H22.5M22.5 115H24.5M25 115.5V116.5M26 116.5V117.5M27 117.5V119.5M28 119.5V121.5M29 121.5V124.5M30 124.5V128M49 79.5V80.5" stroke="black"/>
</svg>
